<?xml version="1.0" encoding="utf-8"?>
<!-- Generator: Adobe Illustrator 23.0.3, SVG Export Plug-In . SVG Version: 6.00 Build 0)  -->
<svg version="1.1" id="Calque_1" xmlns="http://www.w3.org/2000/svg" xmlns:xlink="http://www.w3.org/1999/xlink" x="0px" y="0px"
	 viewBox="0 0 478 416" style="enable-background:new 0 0 478 416;" xml:space="preserve">
<style type="text/css">
	.st0{fill:#E8EAF6;}
	.st1{filter:url(#Adobe_OpacityMaskFilter);}
	.st2{fill-rule:evenodd;clip-rule:evenodd;fill:#FFFFFF;}
	.st3{mask:url(#b_1_);}
	.st4{fill-rule:evenodd;clip-rule:evenodd;fill:#242A45;}
	.st5{opacity:0.245;fill-rule:evenodd;clip-rule:evenodd;fill:#FFFFFF;enable-background:new    ;}
	.st6{opacity:0.104;fill-rule:evenodd;clip-rule:evenodd;fill:#FFFFFF;enable-background:new    ;}
	.st7{opacity:0.75;fill-rule:evenodd;clip-rule:evenodd;fill:#FFFFFF;enable-background:new    ;}
	.st8{opacity:0.25;fill-rule:evenodd;clip-rule:evenodd;fill:#FFFFFF;enable-background:new    ;}
	.st9{filter:url(#Adobe_OpacityMaskFilter_1_);}
	.st10{mask:url(#b_2_);}
	.st11{opacity:0.5;fill-rule:evenodd;clip-rule:evenodd;fill:#242A45;enable-background:new    ;}
	.st12{fill-rule:evenodd;clip-rule:evenodd;fill:#F98E5D;}
	.st13{opacity:0.25;fill-rule:evenodd;clip-rule:evenodd;fill:#242A45;enable-background:new    ;}
	.st14{fill-rule:evenodd;clip-rule:evenodd;fill:#6AC6D6;}
	.st15{fill-rule:evenodd;clip-rule:evenodd;fill:#A47ED4;}
	.st16{fill-rule:evenodd;clip-rule:evenodd;fill:#EC7878;}
</style>
<g>
	<g>
		<path class="st0" d="M7.11,0H464.4c3.89,0,7.04,3.11,7.04,6.94v286.43c0,3.83-3.15,6.94-7.04,6.94H7.11
			c-3.89,0-7.04-3.11-7.04-6.94V6.94C0.08,3.11,3.23,0,7.11,0z"/>
	</g>
	<defs>
		<filter id="Adobe_OpacityMaskFilter" filterUnits="userSpaceOnUse" x="-3.03" y="0.17" width="481.03" height="51.21">
			<feColorMatrix  type="matrix" values="1 0 0 0 0  0 1 0 0 0  0 0 1 0 0  0 0 0 1 0"/>
		</filter>
	</defs>
	<mask maskUnits="userSpaceOnUse" x="-3.03" y="0.17" width="481.03" height="51.21" id="b_1_">
		<g class="st1">
			<path id="a_1_" class="st2" d="M7.11,0H464.4c3.89,0,7.04,3.11,7.04,6.94v286.43c0,3.83-3.15,6.94-7.04,6.94H7.11
				c-3.89,0-7.04-3.11-7.04-6.94V6.94C0.08,3.11,3.23,0,7.11,0z"/>
		</g>
	</mask>
	<g class="st3">
		<path class="st4" d="M-3.03,0.17H478v51.21H-3.03L-3.03,0.17z"/>
		<g transform="translate(22.47 14.197)">
			<ellipse class="st5" cx="11.44" cy="12.01" rx="14.07" ry="13.89"/>
			<ellipse class="st6" cx="416.84" cy="12.01" rx="14.07" ry="13.89"/>
			<g transform="translate(47 6)">
				<path class="st7" d="M-5.66-2.67H94.59c1.46,0,2.64,1.17,2.64,2.6l0,0c0,1.44-1.18,2.6-2.64,2.6H-5.66
					c-1.46,0-2.64-1.17-2.64-2.6l0,0C-8.3-1.5-7.12-2.67-5.66-2.67z"/>
				<path class="st8" d="M-5.66,9.48h51c1.46,0,2.64,1.17,2.64,2.6l0,0c0,1.44-1.18,2.6-2.64,2.6h-51c-1.46,0-2.64-1.17-2.64-2.6
					l0,0C-8.3,10.65-7.12,9.48-5.66,9.48z"/>
			</g>
		</g>
	</g>
	<defs>
		<filter id="Adobe_OpacityMaskFilter_1_" filterUnits="userSpaceOnUse" x="50.2" y="80.72" width="371.98" height="274.28">
			<feColorMatrix  type="matrix" values="1 0 0 0 0  0 1 0 0 0  0 0 1 0 0  0 0 0 1 0"/>
		</filter>
	</defs>
	<mask maskUnits="userSpaceOnUse" x="50.2" y="80.72" width="371.98" height="274.28" id="b_2_">
		<g class="st9">
			<path id="a_2_" class="st2" d="M7.11,0H464.4c3.89,0,7.04,3.11,7.04,6.94v286.43c0,3.83-3.15,6.94-7.04,6.94H7.11
				c-3.89,0-7.04-3.11-7.04-6.94V6.94C0.08,3.11,3.23,0,7.11,0z"/>
		</g>
	</mask>
	<g class="st10">
		<g transform="translate(57 93)">
			<path class="st2" d="M0.24-12.28h215.45c3.89,0,7.04,3.11,7.04,6.94v260.39c0,3.83-3.15,6.94-7.04,6.94H0.24
				c-3.89,0-7.04-3.11-7.04-6.94V-5.33C-6.8-9.17-3.65-12.28,0.24-12.28z"/>
			<path class="st2" d="M259.66-12.28h98.49c3.89,0,7.04,3.11,7.04,6.94v260.39c0,3.83-3.15,6.94-7.04,6.94h-98.49
				c-3.89,0-7.04-3.11-7.04-6.94V-5.33C252.62-9.17,255.77-12.28,259.66-12.28z"/>
			<path class="st11" d="M64.85,20.88H165.1c1.46,0,2.64,1.17,2.64,2.6l0,0c0,1.44-1.18,2.6-2.64,2.6H64.85
				c-1.46,0-2.64-1.17-2.64-2.6l0,0C62.21,22.04,63.39,20.88,64.85,20.88z"/>
		</g>
	</g>
	<g transform="translate(88.47 115.197)">
		<ellipse class="st12" cx="3.48" cy="7.36" rx="14.07" ry="13.89"/>
		<path class="st13" d="M241.79-15.21h72.11c1.46,0,2.64,1.17,2.64,2.6l0,0c0,1.44-1.18,2.6-2.64,2.6h-72.11
			c-1.46,0-2.64-1.17-2.64-2.6l0,0C239.15-14.04,240.34-15.21,241.79-15.21z"/>
		<path class="st13" d="M241.79,2.15h72.11c1.46,0,2.64,1.17,2.64,2.6l0,0c0,1.44-1.18,2.6-2.64,2.6h-72.11
			c-1.46,0-2.64-1.17-2.64-2.6l0,0C239.15,3.32,240.34,2.15,241.79,2.15z"/>
		<path class="st13" d="M241.79,19.51h72.11c1.46,0,2.64,1.17,2.64,2.6l0,0c0,1.44-1.18,2.6-2.64,2.6h-72.11
			c-1.46,0-2.64-1.17-2.64-2.6l0,0C239.15,20.68,240.34,19.51,241.79,19.51z"/>
		<path class="st13" d="M241.79,36.87h72.11c1.46,0,2.64,1.17,2.64,2.6l0,0c0,1.44-1.18,2.6-2.64,2.6h-72.11
			c-1.46,0-2.64-1.17-2.64-2.6l0,0C239.15,38.03,240.34,36.87,241.79,36.87z"/>
		<path class="st13" d="M241.79,66.38h72.11c1.46,0,2.64,1.17,2.64,2.6l0,0c0,1.44-1.18,2.6-2.64,2.6h-72.11
			c-1.46,0-2.64-1.17-2.64-2.6l0,0C239.15,67.55,240.34,66.38,241.79,66.38z"/>
		<path class="st13" d="M241.79,83.74h72.11c1.46,0,2.64,1.17,2.64,2.6l0,0c0,1.44-1.18,2.6-2.64,2.6h-72.11
			c-1.46,0-2.64-1.17-2.64-2.6l0,0C239.15,84.91,240.34,83.74,241.79,83.74z"/>
		<path class="st13" d="M241.79,101.1h72.11c1.46,0,2.64,1.17,2.64,2.6l0,0c0,1.44-1.18,2.6-2.64,2.6h-72.11
			c-1.46,0-2.64-1.17-2.64-2.6l0,0C239.15,102.26,240.34,101.1,241.79,101.1z"/>
		<path class="st13" d="M33.38,10.83h51c1.46,0,2.64,1.17,2.64,2.6l0,0c0,1.44-1.18,2.6-2.64,2.6h-51c-1.46,0-2.64-1.17-2.64-2.6
			l0,0C30.74,12,31.92,10.83,33.38,10.83z"/>
	</g>
	<g transform="translate(88.47 181.197)">
		<ellipse class="st14" cx="3.48" cy="-10.04" rx="14.07" ry="13.89"/>
		<path class="st11" d="M33.38-18.72h100.25c1.46,0,2.64,1.17,2.64,2.6l0,0c0,1.44-1.18,2.6-2.64,2.6H33.38
			c-1.46,0-2.64-1.17-2.64-2.6l0,0C30.74-17.55,31.92-18.72,33.38-18.72z"/>
		<path class="st13" d="M33.38-6.56h51c1.46,0,2.64,1.17,2.64,2.6l0,0c0,1.44-1.18,2.6-2.64,2.6h-51c-1.46,0-2.64-1.17-2.64-2.6l0,0
			C30.74-5.4,31.92-6.56,33.38-6.56z"/>
	</g>
	<g transform="translate(88.47 237.197)">
		<ellipse class="st15" cx="3.48" cy="-17.43" rx="14.07" ry="13.89"/>
		<path class="st11" d="M33.38-26.11h100.25c1.46,0,2.64,1.17,2.64,2.6l0,0c0,1.44-1.18,2.6-2.64,2.6H33.38
			c-1.46,0-2.64-1.17-2.64-2.6l0,0C30.74-24.94,31.92-26.11,33.38-26.11z"/>
		<path class="st13" d="M33.38-13.96h51c1.46,0,2.64,1.17,2.64,2.6l0,0c0,1.44-1.18,2.6-2.64,2.6h-51c-1.46,0-2.64-1.17-2.64-2.6
			l0,0C30.74-12.79,31.92-13.96,33.38-13.96z"/>
	</g>
	<g transform="translate(88.47 293.197)">
		<ellipse class="st16" cx="3.48" cy="-24.82" rx="14.07" ry="13.89"/>
		<path class="st11" d="M33.38-33.5h100.25c1.46,0,2.64,1.17,2.64,2.6l0,0c0,1.44-1.18,2.6-2.64,2.6H33.38
			c-1.46,0-2.64-1.17-2.64-2.6l0,0C30.74-32.34,31.92-33.5,33.38-33.5z"/>
		<path class="st13" d="M33.38-21.35h51c1.46,0,2.64,1.17,2.64,2.6l0,0c0,1.44-1.18,2.6-2.64,2.6h-51c-1.46,0-2.64-1.17-2.64-2.6
			l0,0C30.74-20.19,31.92-21.35,33.38-21.35z"/>
	</g>
</g>
</svg>
